<mxfile host="app.diagrams.net" modified="2022-11-09T04:39:22.524Z" agent="5.0 (Windows NT 10.0; Win64; x64) AppleWebKit/537.36 (KHTML, like Gecko) Chrome/107.0.0.0 Safari/537.36" etag="tv2fBsw2Vag4Aubv1_WS" version="20.5.1" type="github">
  <diagram name="Page-1" id="e7e014a7-5840-1c2e-5031-d8a46d1fe8dd">
    <mxGraphModel dx="2390" dy="672" grid="1" gridSize="10" guides="1" tooltips="1" connect="1" arrows="1" fold="1" page="1" pageScale="1" pageWidth="1169" pageHeight="826" background="none" math="0" shadow="0">
      <root>
        <mxCell id="0" />
        <mxCell id="1" parent="0" />
        <mxCell id="D7pw64qDKN3Jk1SbKEh4-42" value="&lt;b&gt;Servidor&lt;/b&gt;" style="verticalAlign=top;align=center;shape=cube;size=10;direction=south;fontStyle=0;html=1;boundedLbl=1;spacingLeft=5;" parent="1" vertex="1">
          <mxGeometry x="-60" y="110" width="660" height="460" as="geometry" />
        </mxCell>
        <mxCell id="D7pw64qDKN3Jk1SbKEh4-44" value="&lt;div style=&quot;&quot;&gt;&lt;b style=&quot;background-color: initial;&quot;&gt;Fotorresistencia&lt;/b&gt;&lt;/div&gt;" style="verticalAlign=top;align=center;shape=cube;size=10;direction=south;fontStyle=0;html=1;boundedLbl=1;spacingLeft=5;" parent="1" vertex="1">
          <mxGeometry x="1080" y="142.5" width="110" height="90" as="geometry" />
        </mxCell>
        <mxCell id="D7pw64qDKN3Jk1SbKEh4-46" value="&lt;div style=&quot;&quot;&gt;&lt;b style=&quot;background-color: initial;&quot;&gt;Maseta&lt;/b&gt;&lt;/div&gt;" style="verticalAlign=top;align=center;shape=cube;size=10;direction=south;fontStyle=0;html=1;boundedLbl=1;spacingLeft=5;" parent="1" vertex="1">
          <mxGeometry x="720" y="170" width="240" height="180" as="geometry" />
        </mxCell>
        <mxCell id="D7pw64qDKN3Jk1SbKEh4-47" value="" style="whiteSpace=wrap;html=1;aspect=fixed;" parent="1" vertex="1">
          <mxGeometry x="700" y="250" width="20" height="20" as="geometry" />
        </mxCell>
        <mxCell id="D7pw64qDKN3Jk1SbKEh4-48" value="" style="endArrow=none;html=1;rounded=0;entryX=0;entryY=0;entryDx=50;entryDy=110;entryPerimeter=0;exitX=0;exitY=0;exitDx=85;exitDy=0;exitPerimeter=0;" parent="1" source="D7pw64qDKN3Jk1SbKEh4-46" target="D7pw64qDKN3Jk1SbKEh4-44" edge="1">
          <mxGeometry width="50" height="50" relative="1" as="geometry">
            <mxPoint x="900" y="265" as="sourcePoint" />
            <mxPoint x="980" y="265" as="targetPoint" />
          </mxGeometry>
        </mxCell>
        <mxCell id="D7pw64qDKN3Jk1SbKEh4-56" value="Mqtt" style="endArrow=open;endSize=12;dashed=1;html=1;rounded=0;entryX=1;entryY=0.5;entryDx=0;entryDy=0;exitX=0;exitY=0.5;exitDx=0;exitDy=0;" parent="1" source="D7pw64qDKN3Jk1SbKEh4-47" target="D7pw64qDKN3Jk1SbKEh4-57" edge="1">
          <mxGeometry y="-20" width="160" relative="1" as="geometry">
            <mxPoint x="650" y="120" as="sourcePoint" />
            <mxPoint x="810" y="120" as="targetPoint" />
            <mxPoint as="offset" />
          </mxGeometry>
        </mxCell>
        <mxCell id="D7pw64qDKN3Jk1SbKEh4-57" value="" style="whiteSpace=wrap;html=1;aspect=fixed;" parent="1" vertex="1">
          <mxGeometry x="600" y="250" width="20" height="20" as="geometry" />
        </mxCell>
        <mxCell id="D7pw64qDKN3Jk1SbKEh4-58" value="1883" style="text;html=1;align=center;verticalAlign=middle;resizable=0;points=[];autosize=1;strokeColor=none;fillColor=none;" parent="1" vertex="1">
          <mxGeometry x="680" y="225" width="50" height="30" as="geometry" />
        </mxCell>
        <mxCell id="D7pw64qDKN3Jk1SbKEh4-59" value="1883" style="text;html=1;align=center;verticalAlign=middle;resizable=0;points=[];autosize=1;strokeColor=none;fillColor=none;" parent="1" vertex="1">
          <mxGeometry x="590" y="225" width="50" height="30" as="geometry" />
        </mxCell>
        <mxCell id="D7pw64qDKN3Jk1SbKEh4-60" value="" style="endArrow=open;endSize=12;dashed=1;html=1;rounded=0;entryX=1;entryY=0.5;entryDx=0;entryDy=0;exitX=0;exitY=0.5;exitDx=0;exitDy=0;" parent="1" source="D7pw64qDKN3Jk1SbKEh4-61" edge="1">
          <mxGeometry x="-0.0986" y="-20" width="160" relative="1" as="geometry">
            <mxPoint x="770" y="240" as="sourcePoint" />
            <mxPoint x="720" y="259.75" as="targetPoint" />
            <mxPoint as="offset" />
          </mxGeometry>
        </mxCell>
        <mxCell id="D7pw64qDKN3Jk1SbKEh4-61" value="«Componente»&lt;br&gt;&lt;b&gt;MqttPub&lt;/b&gt;" style="html=1;dropTarget=0;" parent="1" vertex="1">
          <mxGeometry x="764" y="220" width="160" height="70" as="geometry" />
        </mxCell>
        <mxCell id="D7pw64qDKN3Jk1SbKEh4-62" value="" style="shape=module;jettyWidth=8;jettyHeight=4;" parent="D7pw64qDKN3Jk1SbKEh4-61" vertex="1">
          <mxGeometry x="1" width="20" height="20" relative="1" as="geometry">
            <mxPoint x="-27" y="7" as="offset" />
          </mxGeometry>
        </mxCell>
        <mxCell id="D7pw64qDKN3Jk1SbKEh4-63" value="«Componente»&lt;br&gt;&lt;b&gt;MqttSub&lt;/b&gt;" style="html=1;dropTarget=0;" parent="1" vertex="1">
          <mxGeometry x="190" y="155" width="160" height="70" as="geometry" />
        </mxCell>
        <mxCell id="D7pw64qDKN3Jk1SbKEh4-64" value="" style="shape=module;jettyWidth=8;jettyHeight=4;" parent="D7pw64qDKN3Jk1SbKEh4-63" vertex="1">
          <mxGeometry x="1" width="20" height="20" relative="1" as="geometry">
            <mxPoint x="-27" y="7" as="offset" />
          </mxGeometry>
        </mxCell>
        <mxCell id="D7pw64qDKN3Jk1SbKEh4-66" value="" style="endArrow=open;endSize=12;dashed=1;html=1;rounded=0;entryX=1;entryY=0.5;entryDx=0;entryDy=0;exitX=0;exitY=0.5;exitDx=0;exitDy=0;" parent="1" source="D7pw64qDKN3Jk1SbKEh4-57" target="D7pw64qDKN3Jk1SbKEh4-63" edge="1">
          <mxGeometry x="-0.0986" y="-20" width="160" relative="1" as="geometry">
            <mxPoint x="564" y="265.25" as="sourcePoint" />
            <mxPoint x="520" y="270" as="targetPoint" />
            <mxPoint as="offset" />
          </mxGeometry>
        </mxCell>
        <mxCell id="D7pw64qDKN3Jk1SbKEh4-67" value="«Componente»&lt;br&gt;&lt;b&gt;Calidad&lt;/b&gt;" style="html=1;dropTarget=0;" parent="1" vertex="1">
          <mxGeometry x="-30" y="155" width="160" height="70" as="geometry" />
        </mxCell>
        <mxCell id="D7pw64qDKN3Jk1SbKEh4-68" value="" style="shape=module;jettyWidth=8;jettyHeight=4;" parent="D7pw64qDKN3Jk1SbKEh4-67" vertex="1">
          <mxGeometry x="1" width="20" height="20" relative="1" as="geometry">
            <mxPoint x="-27" y="7" as="offset" />
          </mxGeometry>
        </mxCell>
        <mxCell id="D7pw64qDKN3Jk1SbKEh4-69" value="«Componente»&lt;br&gt;&lt;b&gt;Manejador de Almacenaje&lt;/b&gt;" style="html=1;dropTarget=0;" parent="1" vertex="1">
          <mxGeometry x="180" y="287.5" width="160" height="70" as="geometry" />
        </mxCell>
        <mxCell id="D7pw64qDKN3Jk1SbKEh4-70" value="" style="shape=module;jettyWidth=8;jettyHeight=4;" parent="D7pw64qDKN3Jk1SbKEh4-69" vertex="1">
          <mxGeometry x="1" width="20" height="20" relative="1" as="geometry">
            <mxPoint x="-27" y="7" as="offset" />
          </mxGeometry>
        </mxCell>
        <mxCell id="D7pw64qDKN3Jk1SbKEh4-71" value="«Componente»&lt;br&gt;&lt;b&gt;Inserción BD&lt;/b&gt;" style="html=1;dropTarget=0;" parent="1" vertex="1">
          <mxGeometry x="390" y="287.5" width="160" height="70" as="geometry" />
        </mxCell>
        <mxCell id="D7pw64qDKN3Jk1SbKEh4-72" value="" style="shape=module;jettyWidth=8;jettyHeight=4;" parent="D7pw64qDKN3Jk1SbKEh4-71" vertex="1">
          <mxGeometry x="1" width="20" height="20" relative="1" as="geometry">
            <mxPoint x="-27" y="7" as="offset" />
          </mxGeometry>
        </mxCell>
        <mxCell id="D7pw64qDKN3Jk1SbKEh4-73" value="" style="endArrow=open;endSize=12;dashed=1;html=1;rounded=0;entryX=1;entryY=0.5;entryDx=0;entryDy=0;exitX=0;exitY=0.5;exitDx=0;exitDy=0;" parent="1" source="D7pw64qDKN3Jk1SbKEh4-63" target="D7pw64qDKN3Jk1SbKEh4-67" edge="1">
          <mxGeometry x="-0.0986" y="-20" width="160" relative="1" as="geometry">
            <mxPoint x="400" y="270" as="sourcePoint" />
            <mxPoint x="350" y="200" as="targetPoint" />
            <mxPoint as="offset" />
          </mxGeometry>
        </mxCell>
        <mxCell id="D7pw64qDKN3Jk1SbKEh4-74" value="" style="endArrow=open;endSize=12;dashed=1;html=1;rounded=0;entryX=0;entryY=0.5;entryDx=0;entryDy=0;exitX=1;exitY=0.5;exitDx=0;exitDy=0;" parent="1" source="D7pw64qDKN3Jk1SbKEh4-69" target="D7pw64qDKN3Jk1SbKEh4-71" edge="1">
          <mxGeometry x="-0.0986" y="-20" width="160" relative="1" as="geometry">
            <mxPoint x="400" y="200" as="sourcePoint" />
            <mxPoint x="350" y="200" as="targetPoint" />
            <mxPoint as="offset" />
          </mxGeometry>
        </mxCell>
        <mxCell id="D7pw64qDKN3Jk1SbKEh4-75" value="" style="endArrow=open;endSize=12;dashed=1;html=1;rounded=0;entryX=0;entryY=0;entryDx=0;entryDy=0;exitX=1;exitY=1;exitDx=0;exitDy=0;" parent="1" source="D7pw64qDKN3Jk1SbKEh4-67" target="D7pw64qDKN3Jk1SbKEh4-69" edge="1">
          <mxGeometry x="-0.0986" y="-20" width="160" relative="1" as="geometry">
            <mxPoint x="400" y="200" as="sourcePoint" />
            <mxPoint x="350" y="200" as="targetPoint" />
            <mxPoint as="offset" />
          </mxGeometry>
        </mxCell>
        <mxCell id="D7pw64qDKN3Jk1SbKEh4-76" value="«Componente»&lt;br&gt;&lt;b&gt;Consulta BD&lt;/b&gt;" style="html=1;dropTarget=0;" parent="1" vertex="1">
          <mxGeometry x="180" y="413" width="160" height="70" as="geometry" />
        </mxCell>
        <mxCell id="D7pw64qDKN3Jk1SbKEh4-77" value="" style="shape=module;jettyWidth=8;jettyHeight=4;" parent="D7pw64qDKN3Jk1SbKEh4-76" vertex="1">
          <mxGeometry x="1" width="20" height="20" relative="1" as="geometry">
            <mxPoint x="-27" y="7" as="offset" />
          </mxGeometry>
        </mxCell>
        <mxCell id="D7pw64qDKN3Jk1SbKEh4-78" value="«Componente»&lt;br&gt;&lt;b&gt;Enviar Datos&amp;nbsp;&lt;/b&gt;" style="html=1;dropTarget=0;" parent="1" vertex="1">
          <mxGeometry x="-30" y="413" width="160" height="70" as="geometry" />
        </mxCell>
        <mxCell id="D7pw64qDKN3Jk1SbKEh4-79" value="" style="shape=module;jettyWidth=8;jettyHeight=4;" parent="D7pw64qDKN3Jk1SbKEh4-78" vertex="1">
          <mxGeometry x="1" width="20" height="20" relative="1" as="geometry">
            <mxPoint x="-27" y="7" as="offset" />
          </mxGeometry>
        </mxCell>
        <mxCell id="D7pw64qDKN3Jk1SbKEh4-80" value="«Componente»&lt;br&gt;&lt;b&gt;Enviar Notificacion&amp;nbsp;&lt;/b&gt;" style="html=1;dropTarget=0;" parent="1" vertex="1">
          <mxGeometry x="-30" y="290" width="160" height="70" as="geometry" />
        </mxCell>
        <mxCell id="D7pw64qDKN3Jk1SbKEh4-81" value="" style="shape=module;jettyWidth=8;jettyHeight=4;" parent="D7pw64qDKN3Jk1SbKEh4-80" vertex="1">
          <mxGeometry x="1" width="20" height="20" relative="1" as="geometry">
            <mxPoint x="-27" y="7" as="offset" />
          </mxGeometry>
        </mxCell>
        <mxCell id="D7pw64qDKN3Jk1SbKEh4-82" value="" style="endArrow=open;endSize=12;dashed=1;html=1;rounded=0;entryX=0;entryY=0;entryDx=0;entryDy=0;exitX=0;exitY=1;exitDx=0;exitDy=0;" parent="1" edge="1" target="D7pw64qDKN3Jk1SbKEh4-80" source="D7pw64qDKN3Jk1SbKEh4-67">
          <mxGeometry x="-0.0986" y="-20" width="160" relative="1" as="geometry">
            <mxPoint x="180" y="187.07" as="sourcePoint" />
            <mxPoint x="130" y="187.07" as="targetPoint" />
            <mxPoint as="offset" />
          </mxGeometry>
        </mxCell>
        <mxCell id="D7pw64qDKN3Jk1SbKEh4-83" value="" style="endArrow=open;endSize=12;dashed=1;html=1;rounded=0;exitX=0;exitY=0.5;exitDx=0;exitDy=0;" parent="1" source="D7pw64qDKN3Jk1SbKEh4-76" edge="1">
          <mxGeometry x="-0.0986" y="-20" width="160" relative="1" as="geometry">
            <mxPoint x="170" y="448" as="sourcePoint" />
            <mxPoint x="130" y="448" as="targetPoint" />
            <mxPoint as="offset" />
          </mxGeometry>
        </mxCell>
        <mxCell id="D7pw64qDKN3Jk1SbKEh4-84" value="" style="whiteSpace=wrap;html=1;aspect=fixed;" parent="1" vertex="1">
          <mxGeometry x="600" y="530" width="20" height="20" as="geometry" />
        </mxCell>
        <mxCell id="D7pw64qDKN3Jk1SbKEh4-85" value="27017" style="text;html=1;align=center;verticalAlign=middle;resizable=0;points=[];autosize=1;strokeColor=none;fillColor=none;" parent="1" vertex="1">
          <mxGeometry x="590" y="500" width="60" height="30" as="geometry" />
        </mxCell>
        <mxCell id="D7pw64qDKN3Jk1SbKEh4-86" value="&lt;div style=&quot;&quot;&gt;&lt;b&gt;MongoDB&lt;/b&gt;&lt;/div&gt;" style="verticalAlign=top;align=center;shape=cube;size=10;direction=south;fontStyle=0;html=1;boundedLbl=1;spacingLeft=5;" parent="1" vertex="1">
          <mxGeometry x="720" y="390" width="340" height="240" as="geometry" />
        </mxCell>
        <mxCell id="D7pw64qDKN3Jk1SbKEh4-87" value="" style="whiteSpace=wrap;html=1;aspect=fixed;" parent="1" vertex="1">
          <mxGeometry x="700" y="530" width="20" height="20" as="geometry" />
        </mxCell>
        <mxCell id="D7pw64qDKN3Jk1SbKEh4-88" value="27017" style="text;html=1;align=center;verticalAlign=middle;resizable=0;points=[];autosize=1;strokeColor=none;fillColor=none;" parent="1" vertex="1">
          <mxGeometry x="670" y="500" width="60" height="30" as="geometry" />
        </mxCell>
        <mxCell id="D7pw64qDKN3Jk1SbKEh4-89" value="" style="endArrow=open;endSize=12;dashed=1;html=1;rounded=0;entryX=1;entryY=0.5;entryDx=0;entryDy=0;exitX=0;exitY=0.5;exitDx=0;exitDy=0;" parent="1" source="D7pw64qDKN3Jk1SbKEh4-87" target="D7pw64qDKN3Jk1SbKEh4-84" edge="1">
          <mxGeometry y="-20" width="160" relative="1" as="geometry">
            <mxPoint x="670" y="495" as="sourcePoint" />
            <mxPoint x="620" y="494.64" as="targetPoint" />
            <mxPoint as="offset" />
          </mxGeometry>
        </mxCell>
        <mxCell id="D7pw64qDKN3Jk1SbKEh4-90" value="" style="whiteSpace=wrap;html=1;aspect=fixed;" parent="1" vertex="1">
          <mxGeometry x="600" y="430" width="20" height="20" as="geometry" />
        </mxCell>
        <mxCell id="D7pw64qDKN3Jk1SbKEh4-91" value="" style="whiteSpace=wrap;html=1;aspect=fixed;" parent="1" vertex="1">
          <mxGeometry x="700" y="430" width="20" height="20" as="geometry" />
        </mxCell>
        <mxCell id="D7pw64qDKN3Jk1SbKEh4-92" value="" style="endArrow=open;endSize=12;dashed=1;html=1;rounded=0;exitX=1;exitY=0.5;exitDx=0;exitDy=0;entryX=0;entryY=0.5;entryDx=0;entryDy=0;" parent="1" source="D7pw64qDKN3Jk1SbKEh4-90" target="D7pw64qDKN3Jk1SbKEh4-91" edge="1">
          <mxGeometry y="-20" width="160" relative="1" as="geometry">
            <mxPoint x="670" y="395" as="sourcePoint" />
            <mxPoint x="680" y="450" as="targetPoint" />
            <mxPoint as="offset" />
          </mxGeometry>
        </mxCell>
        <mxCell id="D7pw64qDKN3Jk1SbKEh4-93" value="27017" style="text;html=1;align=center;verticalAlign=middle;resizable=0;points=[];autosize=1;strokeColor=none;fillColor=none;" parent="1" vertex="1">
          <mxGeometry x="590" y="400" width="60" height="30" as="geometry" />
        </mxCell>
        <mxCell id="D7pw64qDKN3Jk1SbKEh4-94" value="27017" style="text;html=1;align=center;verticalAlign=middle;resizable=0;points=[];autosize=1;strokeColor=none;fillColor=none;" parent="1" vertex="1">
          <mxGeometry x="670" y="400" width="60" height="30" as="geometry" />
        </mxCell>
        <mxCell id="D7pw64qDKN3Jk1SbKEh4-96" value="" style="endArrow=open;endSize=12;dashed=1;html=1;rounded=0;entryX=0.72;entryY=0;entryDx=0;entryDy=0;entryPerimeter=0;" parent="1" target="D7pw64qDKN3Jk1SbKEh4-42" edge="1">
          <mxGeometry y="-20" width="160" relative="1" as="geometry">
            <mxPoint x="550" y="360" as="sourcePoint" />
            <mxPoint x="580" y="414.74" as="targetPoint" />
            <Array as="points">
              <mxPoint x="550" y="440" />
            </Array>
            <mxPoint as="offset" />
          </mxGeometry>
        </mxCell>
        <mxCell id="D7pw64qDKN3Jk1SbKEh4-97" value="" style="endArrow=open;endSize=12;dashed=1;html=1;rounded=0;entryX=0.75;entryY=1;entryDx=0;entryDy=0;exitX=0.929;exitY=0;exitDx=0;exitDy=0;exitPerimeter=0;" parent="1" source="D7pw64qDKN3Jk1SbKEh4-42" target="D7pw64qDKN3Jk1SbKEh4-76" edge="1">
          <mxGeometry y="-20" width="160" relative="1" as="geometry">
            <mxPoint x="585" y="529.49" as="sourcePoint" />
            <mxPoint x="505" y="529.49" as="targetPoint" />
            <mxPoint as="offset" />
            <Array as="points">
              <mxPoint x="460" y="537" />
              <mxPoint x="300" y="537" />
            </Array>
          </mxGeometry>
        </mxCell>
        <mxCell id="D7pw64qDKN3Jk1SbKEh4-98" value="" style="whiteSpace=wrap;html=1;aspect=fixed;" parent="1" vertex="1">
          <mxGeometry x="110" y="570" width="20" height="20" as="geometry" />
        </mxCell>
        <mxCell id="D7pw64qDKN3Jk1SbKEh4-99" value="WebSockets" style="text;html=1;align=center;verticalAlign=middle;resizable=0;points=[];autosize=1;strokeColor=none;fillColor=none;" parent="1" vertex="1">
          <mxGeometry x="130" y="570" width="90" height="30" as="geometry" />
        </mxCell>
        <mxCell id="D7pw64qDKN3Jk1SbKEh4-100" value="&lt;div style=&quot;&quot;&gt;&lt;b&gt;Pc&lt;/b&gt;&lt;/div&gt;" style="verticalAlign=top;align=center;shape=cube;size=10;direction=south;fontStyle=0;html=1;boundedLbl=1;spacingLeft=5;" parent="1" vertex="1">
          <mxGeometry x="30" y="690" width="320" height="250" as="geometry" />
        </mxCell>
        <mxCell id="D7pw64qDKN3Jk1SbKEh4-101" value="«Componente»&lt;br&gt;&lt;b&gt;AppWeb&amp;nbsp;&lt;/b&gt;" style="html=1;dropTarget=0;" parent="1" vertex="1">
          <mxGeometry x="95" y="780" width="160" height="70" as="geometry" />
        </mxCell>
        <mxCell id="D7pw64qDKN3Jk1SbKEh4-102" value="" style="shape=module;jettyWidth=8;jettyHeight=4;" parent="D7pw64qDKN3Jk1SbKEh4-101" vertex="1">
          <mxGeometry x="1" width="20" height="20" relative="1" as="geometry">
            <mxPoint x="-27" y="7" as="offset" />
          </mxGeometry>
        </mxCell>
        <mxCell id="D7pw64qDKN3Jk1SbKEh4-104" value="" style="whiteSpace=wrap;html=1;aspect=fixed;" parent="1" vertex="1">
          <mxGeometry x="110" y="670" width="20" height="20" as="geometry" />
        </mxCell>
        <mxCell id="D7pw64qDKN3Jk1SbKEh4-105" value="WebSockets" style="text;html=1;align=center;verticalAlign=middle;resizable=0;points=[];autosize=1;strokeColor=none;fillColor=none;" parent="1" vertex="1">
          <mxGeometry x="130" y="665" width="90" height="30" as="geometry" />
        </mxCell>
        <mxCell id="D7pw64qDKN3Jk1SbKEh4-106" value="" style="endArrow=open;endSize=12;dashed=1;html=1;rounded=0;exitX=0.5;exitY=1;exitDx=0;exitDy=0;entryX=0.5;entryY=0;entryDx=0;entryDy=0;" parent="1" source="D7pw64qDKN3Jk1SbKEh4-98" target="D7pw64qDKN3Jk1SbKEh4-104" edge="1">
          <mxGeometry x="-0.0986" y="-20" width="160" relative="1" as="geometry">
            <mxPoint x="190" y="458" as="sourcePoint" />
            <mxPoint x="140" y="458" as="targetPoint" />
            <mxPoint as="offset" />
          </mxGeometry>
        </mxCell>
        <mxCell id="D7pw64qDKN3Jk1SbKEh4-107" value="" style="endArrow=open;endSize=12;dashed=1;html=1;rounded=0;exitX=0.5;exitY=1;exitDx=0;exitDy=0;entryX=0.5;entryY=0;entryDx=0;entryDy=0;" parent="1" source="D7pw64qDKN3Jk1SbKEh4-78" target="D7pw64qDKN3Jk1SbKEh4-98" edge="1">
          <mxGeometry x="-0.0986" y="-20" width="160" relative="1" as="geometry">
            <mxPoint x="190" y="458" as="sourcePoint" />
            <mxPoint x="140" y="458" as="targetPoint" />
            <mxPoint as="offset" />
          </mxGeometry>
        </mxCell>
        <mxCell id="D7pw64qDKN3Jk1SbKEh4-108" value="" style="endArrow=open;endSize=12;dashed=1;html=1;rounded=0;entryX=0.5;entryY=0;entryDx=0;entryDy=0;exitX=0.5;exitY=1;exitDx=0;exitDy=0;" parent="1" source="D7pw64qDKN3Jk1SbKEh4-80" target="D7pw64qDKN3Jk1SbKEh4-78" edge="1">
          <mxGeometry x="-0.0986" y="-20" width="160" relative="1" as="geometry">
            <mxPoint x="190" y="197.07" as="sourcePoint" />
            <mxPoint x="140" y="197.07" as="targetPoint" />
            <mxPoint as="offset" />
          </mxGeometry>
        </mxCell>
        <mxCell id="D7pw64qDKN3Jk1SbKEh4-109" value="" style="endArrow=open;endSize=12;dashed=1;html=1;rounded=0;exitX=0.5;exitY=1;exitDx=0;exitDy=0;entryX=0.5;entryY=0;entryDx=0;entryDy=0;" parent="1" source="D7pw64qDKN3Jk1SbKEh4-104" target="D7pw64qDKN3Jk1SbKEh4-101" edge="1">
          <mxGeometry x="-0.0986" y="-20" width="160" relative="1" as="geometry">
            <mxPoint x="129" y="695" as="sourcePoint" />
            <mxPoint x="129" y="775" as="targetPoint" />
            <mxPoint as="offset" />
          </mxGeometry>
        </mxCell>
        <mxCell id="ZmsJNTWnC-k3nyposuvp-1" value="&lt;div style=&quot;&quot;&gt;&lt;b style=&quot;background-color: initial;&quot;&gt;Sensor Humedad&lt;/b&gt;&lt;/div&gt;" style="verticalAlign=top;align=center;shape=cube;size=10;direction=south;fontStyle=0;html=1;boundedLbl=1;spacingLeft=5;" vertex="1" parent="1">
          <mxGeometry x="1080" y="260" width="120" height="100" as="geometry" />
        </mxCell>
        <mxCell id="ZmsJNTWnC-k3nyposuvp-2" value="" style="endArrow=none;html=1;rounded=0;entryX=0;entryY=0;entryDx=55;entryDy=120;entryPerimeter=0;exitX=0;exitY=0;exitDx=85;exitDy=0;exitPerimeter=0;" edge="1" parent="1" source="D7pw64qDKN3Jk1SbKEh4-46" target="ZmsJNTWnC-k3nyposuvp-1">
          <mxGeometry width="50" height="50" relative="1" as="geometry">
            <mxPoint x="969.52" y="276.1199999999999" as="sourcePoint" />
            <mxPoint x="1090" y="202.5" as="targetPoint" />
          </mxGeometry>
        </mxCell>
        <mxCell id="ZmsJNTWnC-k3nyposuvp-10" value="" style="whiteSpace=wrap;html=1;aspect=fixed;" vertex="1" parent="1">
          <mxGeometry x="260" y="670" width="20" height="20" as="geometry" />
        </mxCell>
        <mxCell id="ZmsJNTWnC-k3nyposuvp-11" value="" style="endArrow=open;endSize=12;dashed=1;html=1;rounded=0;exitX=0.5;exitY=0;exitDx=0;exitDy=0;entryX=0.5;entryY=1;entryDx=0;entryDy=0;strokeColor=#0000FF;" edge="1" source="ZmsJNTWnC-k3nyposuvp-10" target="ZmsJNTWnC-k3nyposuvp-12" parent="1">
          <mxGeometry x="-0.0986" y="-20" width="160" relative="1" as="geometry">
            <mxPoint x="340" y="458" as="sourcePoint" />
            <mxPoint x="230" y="630" as="targetPoint" />
            <mxPoint as="offset" />
          </mxGeometry>
        </mxCell>
        <mxCell id="ZmsJNTWnC-k3nyposuvp-12" value="" style="whiteSpace=wrap;html=1;aspect=fixed;" vertex="1" parent="1">
          <mxGeometry x="260" y="570" width="20" height="20" as="geometry" />
        </mxCell>
        <mxCell id="ZmsJNTWnC-k3nyposuvp-13" value="WebSockets" style="text;html=1;align=center;verticalAlign=middle;resizable=0;points=[];autosize=1;strokeColor=none;fillColor=none;" vertex="1" parent="1">
          <mxGeometry x="280" y="570" width="90" height="30" as="geometry" />
        </mxCell>
        <mxCell id="ZmsJNTWnC-k3nyposuvp-14" value="WebSockets" style="text;html=1;align=center;verticalAlign=middle;resizable=0;points=[];autosize=1;strokeColor=none;fillColor=none;" vertex="1" parent="1">
          <mxGeometry x="280" y="665" width="90" height="30" as="geometry" />
        </mxCell>
        <mxCell id="ZmsJNTWnC-k3nyposuvp-15" value="" style="endArrow=open;endSize=12;dashed=1;html=1;rounded=0;exitX=0.75;exitY=0;exitDx=0;exitDy=0;entryX=0.5;entryY=1;entryDx=0;entryDy=0;fillColor=#a20025;strokeColor=#0000FF;" edge="1" parent="1" source="D7pw64qDKN3Jk1SbKEh4-101" target="ZmsJNTWnC-k3nyposuvp-10">
          <mxGeometry x="-0.0986" y="-20" width="160" relative="1" as="geometry">
            <mxPoint x="130" y="700" as="sourcePoint" />
            <mxPoint x="185" y="790" as="targetPoint" />
            <mxPoint as="offset" />
          </mxGeometry>
        </mxCell>
        <mxCell id="ZmsJNTWnC-k3nyposuvp-18" value="«Componente»&lt;br&gt;&lt;b&gt;Regar&lt;/b&gt;" style="html=1;dropTarget=0;" vertex="1" parent="1">
          <mxGeometry x="370" y="413" width="160" height="70" as="geometry" />
        </mxCell>
        <mxCell id="ZmsJNTWnC-k3nyposuvp-19" value="" style="shape=module;jettyWidth=8;jettyHeight=4;" vertex="1" parent="ZmsJNTWnC-k3nyposuvp-18">
          <mxGeometry x="1" width="20" height="20" relative="1" as="geometry">
            <mxPoint x="-27" y="7" as="offset" />
          </mxGeometry>
        </mxCell>
        <mxCell id="ZmsJNTWnC-k3nyposuvp-21" value="" style="endArrow=open;endSize=12;dashed=1;html=1;rounded=0;exitX=0.5;exitY=0;exitDx=0;exitDy=0;entryX=0.5;entryY=1;entryDx=0;entryDy=0;strokeColor=#0000FF;" edge="1" parent="1" source="ZmsJNTWnC-k3nyposuvp-12" target="ZmsJNTWnC-k3nyposuvp-18">
          <mxGeometry x="-0.0986" y="-20" width="160" relative="1" as="geometry">
            <mxPoint x="430" y="580" as="sourcePoint" />
            <mxPoint x="430" y="500" as="targetPoint" />
            <mxPoint as="offset" />
            <Array as="points">
              <mxPoint x="450" y="530" />
            </Array>
          </mxGeometry>
        </mxCell>
        <mxCell id="ZmsJNTWnC-k3nyposuvp-22" value="" style="endArrow=open;endSize=12;dashed=1;html=1;rounded=0;exitX=0.75;exitY=0;exitDx=0;exitDy=0;strokeColor=#0000FF;entryX=0;entryY=0.5;entryDx=0;entryDy=0;" edge="1" parent="1" source="ZmsJNTWnC-k3nyposuvp-18" target="ZmsJNTWnC-k3nyposuvp-24">
          <mxGeometry x="-0.0986" y="-20" width="160" relative="1" as="geometry">
            <mxPoint x="469.58" y="413" as="sourcePoint" />
            <mxPoint x="640" y="370" as="targetPoint" />
            <mxPoint as="offset" />
          </mxGeometry>
        </mxCell>
        <mxCell id="ZmsJNTWnC-k3nyposuvp-23" value="" style="whiteSpace=wrap;html=1;aspect=fixed;" vertex="1" parent="1">
          <mxGeometry x="700" y="315" width="20" height="20" as="geometry" />
        </mxCell>
        <mxCell id="ZmsJNTWnC-k3nyposuvp-24" value="" style="whiteSpace=wrap;html=1;aspect=fixed;" vertex="1" parent="1">
          <mxGeometry x="600" y="315" width="20" height="20" as="geometry" />
        </mxCell>
        <mxCell id="ZmsJNTWnC-k3nyposuvp-25" value="1883" style="text;html=1;align=center;verticalAlign=middle;resizable=0;points=[];autosize=1;strokeColor=none;fillColor=none;" vertex="1" parent="1">
          <mxGeometry x="680" y="290" width="50" height="30" as="geometry" />
        </mxCell>
        <mxCell id="ZmsJNTWnC-k3nyposuvp-27" value="1883" style="text;html=1;align=center;verticalAlign=middle;resizable=0;points=[];autosize=1;strokeColor=none;fillColor=none;" vertex="1" parent="1">
          <mxGeometry x="590" y="290" width="50" height="30" as="geometry" />
        </mxCell>
        <mxCell id="ZmsJNTWnC-k3nyposuvp-28" value="" style="endArrow=open;endSize=12;dashed=1;html=1;rounded=0;exitX=1;exitY=0.5;exitDx=0;exitDy=0;strokeColor=#0000FF;entryX=0;entryY=0.5;entryDx=0;entryDy=0;" edge="1" parent="1" source="ZmsJNTWnC-k3nyposuvp-24" target="ZmsJNTWnC-k3nyposuvp-23">
          <mxGeometry x="-0.0986" y="-20" width="160" relative="1" as="geometry">
            <mxPoint x="500" y="423" as="sourcePoint" />
            <mxPoint x="610" y="335" as="targetPoint" />
            <mxPoint as="offset" />
          </mxGeometry>
        </mxCell>
        <mxCell id="ZmsJNTWnC-k3nyposuvp-29" value="Mqtt" style="edgeLabel;html=1;align=center;verticalAlign=middle;resizable=0;points=[];" vertex="1" connectable="0" parent="ZmsJNTWnC-k3nyposuvp-28">
          <mxGeometry x="-0.2214" y="1" relative="1" as="geometry">
            <mxPoint y="-9" as="offset" />
          </mxGeometry>
        </mxCell>
        <mxCell id="ZmsJNTWnC-k3nyposuvp-30" value="" style="endArrow=open;endSize=12;dashed=1;html=1;rounded=0;exitX=1;exitY=0.5;exitDx=0;exitDy=0;strokeColor=#0000FF;entryX=0;entryY=1;entryDx=0;entryDy=0;" edge="1" parent="1" source="ZmsJNTWnC-k3nyposuvp-23" target="D7pw64qDKN3Jk1SbKEh4-61">
          <mxGeometry x="-0.0986" y="-20" width="160" relative="1" as="geometry">
            <mxPoint x="730" y="324.58" as="sourcePoint" />
            <mxPoint x="810" y="324.58" as="targetPoint" />
            <mxPoint as="offset" />
          </mxGeometry>
        </mxCell>
        <mxCell id="ZmsJNTWnC-k3nyposuvp-32" value="«Componente»&lt;br&gt;&lt;b&gt;Datos de la maseta&lt;/b&gt;" style="html=1;dropTarget=0;" vertex="1" parent="1">
          <mxGeometry x="810" y="450" width="160" height="70" as="geometry" />
        </mxCell>
        <mxCell id="ZmsJNTWnC-k3nyposuvp-33" value="" style="shape=module;jettyWidth=8;jettyHeight=4;" vertex="1" parent="ZmsJNTWnC-k3nyposuvp-32">
          <mxGeometry x="1" width="20" height="20" relative="1" as="geometry">
            <mxPoint x="-27" y="7" as="offset" />
          </mxGeometry>
        </mxCell>
        <mxCell id="ZmsJNTWnC-k3nyposuvp-34" value="«Componente»&lt;br&gt;&lt;b&gt;Tipos de masetas&lt;/b&gt;" style="html=1;dropTarget=0;" vertex="1" parent="1">
          <mxGeometry x="810" y="530" width="160" height="70" as="geometry" />
        </mxCell>
        <mxCell id="ZmsJNTWnC-k3nyposuvp-35" value="" style="shape=module;jettyWidth=8;jettyHeight=4;" vertex="1" parent="ZmsJNTWnC-k3nyposuvp-34">
          <mxGeometry x="1" width="20" height="20" relative="1" as="geometry">
            <mxPoint x="-27" y="7" as="offset" />
          </mxGeometry>
        </mxCell>
      </root>
    </mxGraphModel>
  </diagram>
</mxfile>
